<?xml version="1.0" encoding="UTF-8" standalone="no"?>
<!DOCTYPE svg PUBLIC "-//W3C//DTD SVG 20010904//EN"
              "http://www.w3.org/TR/2001/REC-SVG-20010904/DTD/svg10.dtd">

<svg xmlns="http://www.w3.org/2000/svg"
     width="4.45833in" height="4.36111in"
     viewBox="0 0 321 314">
  <path id="corner"
        fill="#ff8a65" stroke="black" stroke-width="0"
        d="M 10.25,175.12
           C 10.25,175.12 131.00,297.50 131.00,297.50
             131.00,297.50 157.00,326.50 186.00,298.00
             215.00,269.50 307.00,178.50 307.00,178.50
             307.00,178.50 333.00,158.50 306.00,132.50
             279.00,106.50 187.50,13.50 187.50,13.50
             187.50,13.50 164.00,-8.00 135.50,13.50
             111.00,36.50 12.25,135.25 12.25,135.25M 12.50,135.00
           C 12.50,135.00 -7.50,156.00 11.50,176.50" />
  <path id="piece"
        fill="#fff" stroke="black" stroke-width="0"
        d="M 141.00,151.00
           C 141.00,151.00 115.50,213.00 115.50,213.00
             115.50,213.00 159.50,245.00 202.50,213.00
             178.50,151.00 177.50,150.50 177.50,150.50
             177.50,150.50 140.00,150.50 140.00,150.50M 206.50,221.00
           C 206.50,221.00 160.50,250.50 113.50,221.00
             105.00,223.50 100.50,232.50 103.50,245.00
             116.00,250.50 158.50,283.00 218.00,243.00
             222.00,233.50 209.00,220.50 209.00,220.50M 192.50,130.50
           C 192.50,130.50 126.00,130.50 126.00,130.50
             126.00,130.50 120.00,136.75 126.25,143.25
             132.75,143.25 191.75,142.50 191.75,142.50
             191.75,142.50 197.50,137.75 192.50,130.25M 126.75,101.75
           C 126.75,101.75 131.50,120.00 135.75,123.75
             144.00,123.50 185.00,123.50 185.00,123.50
             185.00,123.50 193.50,107.50 192.25,102.25
             205.00,102.25 221.00,100.00 222.50,85.25
             218.25,70.00 206.75,59.00 203.25,55.50
             198.00,53.75 188.50,54.25 188.50,54.25
             188.50,54.25 185.50,60.00 188.25,67.75
             188.25,69.50 197.25,63.50 199.00,66.75
             200.75,70.00 201.75,75.50 201.75,75.50
             201.75,75.50 188.25,84.50 175.75,83.50
             168.75,83.50 170.00,74.50 170.00,74.25
             175.50,68.25 172.25,56.75 172.25,56.75
             172.25,56.75 160.25,39.50 147.00,57.25
             144.75,69.00 151.00,74.25 151.00,74.25
             151.00,74.25 153.25,81.25 143.75,83.75
             131.75,84.25 118.00,75.50 118.00,75.50
             118.00,75.50 118.25,64.00 124.75,66.00
             128.00,68.25 132.00,68.00 132.00,68.00
             132.00,68.00 133.25,59.75 132.25,54.50
             125.75,53.25 119.50,54.00 118.00,54.75
             113.50,54.75 94.75,76.25 98.00,87.75
             102.25,98.25 111.25,101.50 127.00,101.25" />
</svg>
